<svg xmlns="http://www.w3.org/2000/svg" width="260px" height="170px" viewBox="0 0 300 200">
  <defs>
    <linearGradient id="SvgjsLinearGradient1">
      <stop stop-color="#b88746" offset="0"></stop>
      <stop stop-color="#fdf5a6" offset="1"></stop>
    </linearGradient>
    <linearGradient id="svg-linear-gradient2" x1="0%" y1="0%" x2="120%" y2="100%">
      <stop stop-color="#b88746" offset="0"></stop>
      <stop stop-color="#fdf5a6" offset="1"></stop>
    </linearGradient>
  </defs>
  <g transform="matrix(1.351537328340777,0,0,1.351537328340777,82.00941977515623,-20.54336842192096)"
    fill="url(#SvgjsLinearGradient1)" xmlns="http://www.w3.org/2000/svg">
    <path
      d="M91.9,26.1c-1.3-2.8-3.9-4.9-6.9-5.5l-15.1-3.3c-12.6-2.8-25.6-2.8-38.1,0l-15.6,3.4c-2.8,0.6-5.2,2.4-6.5,4.9L7.2,30   c-1.7,3-1.7,6.6-0.1,9.6l3.6,6.7c0.7,1.3,2.3,1.9,3.7,1.3l15-6c1.1-0.4,1.9-1.5,1.8-2.8l-0.1-11.1c13-2.8,26.5-2.7,39.4,0.5l0.1,0   l0.1,10.5c0,1.2,0.8,2.3,2,2.7l14.6,5.2c1.4,0.5,3-0.2,3.6-1.5l2.9-6.4c1.2-2.6,1.2-5.7,0-8.3L91.9,26.1z">
    </path>
    <circle cx="38.3" cy="50.6" r="3.2"></circle>
    <circle cx="49" cy="50.6" r="3.2"></circle>
    <circle cx="59.7" cy="50.6" r="3.2"></circle>
    <circle cx="38.3" cy="61.2" r="3.2"></circle>
    <circle cx="49" cy="61.2" r="3.2"></circle>
    <circle cx="59.7" cy="61.2" r="3.2"></circle>
    <circle cx="38.3" cy="71.9" r="3.2"></circle>
    <circle cx="49" cy="71.9" r="3.2"></circle>
    <circle cx="59.7" cy="71.9" r="3.2"></circle>
    <circle cx="49" cy="82.6" r="3.2"></circle>
  </g>
  <g fill="white" transform="matrix(1.6250034713819275,0,0,1.6250034713819275,-0.9750011529947117,92.05494807060592)">
    <path
      d="M22.96 14.239999999999998 l0 6.44 l0 0.04 c0 0.48 -0.36 0.88 -0.84 0.88 s-0.88 -0.4 -0.88 -0.88 s0.4 -0.88 0.88 -0.88 c0.12 0 0.2 0.04 0.32 0.04 c-0.64 -5.12 -6.2 -5.16 -6.68 -5.16 l-2.2 0 l0 21.72 c0 2.4 1.16 3.08 2.72 3.08 l0 0.48 l-8.96 0 l0 -0.48 c1.56 0 2.64 -0.68 2.64 -3.08 l0 -21.72 l-2.16 0 c-1.08 0 -6.16 0.04 -6.68 5.16 c0.08 -0.04 0.2 -0.04 0.32 -0.04 c0.52 0 0.88 0.36 0.88 0.84 c0 0.6 -0.28 0.88 -0.88 0.88 c-0.48 0 -0.84 -0.36 -0.84 -0.88 l0 -6.44 l22.36 0 z M50.859 36.96 c1.04 2.4 1.88 2.52 2.84 2.52 l0 0.48 l-8.36 0 l0 -0.48 c1.96 0 1.6 -2.08 0.76 -4.08 l-1.16 -3.2 l-9.56 0 c-0.96 2.88 -2.68 7.48 2.44 7.28 l0 0.48 l-8.12 0 l0 -0.48 c1.4 0 2.28 -0.24 5.44 -8.6 l5.36 -14.64 l0.68 -2.04 l2.08 0 l1.52 0 l1.4 0 c0.48 0 0.8 0.4 0.8 0.88 s-0.4 0.84 -0.88 0.84 c-0.44 0 -0.88 -0.36 -0.88 -0.84 c0 -0.16 0.08 -0.24 0.12 -0.36 c-1.4 0.2 -1.48 1.08 -1.04 2.56 c0 0.04 0.04 0.36 6.28 18.8 c0.12 0.32 0.16 0.52 0.2 0.68 c0.04 0.12 0.04 0.16 0.08 0.2 z M44.459 30.8 l-4.32 -12 l-4.36 12 l8.68 0 z M35.499 31.72 l9.32 0 l-0.24 -0.44 l-8.96 0 z M83.238 32.04 l0 7.96 l-18.28 0 l0 -0.48 c1.56 0 2 -1.36 2 -3.88 l0 -17.88 c0 -1.88 -0.48 -2.76 -1.48 -3.04 c0 0.12 0.04 0.2 0.04 0.32 c0 0.48 -0.4 0.84 -0.88 0.84 s-0.88 -0.36 -0.88 -0.84 c0 -0.52 0.4 -0.88 0.88 -0.88 l8.72 0 c0.52 0 0.88 0.4 0.88 0.88 s-0.4 0.84 -0.92 0.84 c-0.48 0 -0.88 -0.36 -0.88 -0.84 c0 -0.12 0.04 -0.2 0.08 -0.32 c-1.12 0.28 -1.88 1 -1.88 3.2 l0 21.6 l1.32 0 c3.8 0.12 9.68 0 10.76 -6.52 c-0.12 0 -0.16 0.04 -0.28 0.04 c-0.52 0 -0.88 -0.4 -0.88 -0.88 s0.36 -0.88 0.88 -0.88 c0.44 0 0.76 0.32 0.8 0.76 z M111.977 33.72 l2.8 3.76 c1.72 2.12 4.36 2.04 4.88 2.04 l0 0.48 l-3.92 0 c-3.92 0 -4.88 -1.04 -8.68 -6.68 c-1.44 -2.04 -2.8 -3.92 -3.56 -4.92 l-2.48 2.96 l0 4.76 c0 2.56 0.88 3.4 2.48 3.4 l0 0.48 l-8.6 0 l0 -0.48 c1.56 0 2.4 -0.84 2.4 -3.4 l0 -18.64 c0 -1.88 -0.52 -2.6 -1.6 -2.88 c0.04 0.16 0.08 0.28 0.08 0.4 c0 0.44 -0.4 0.8 -0.88 0.8 s-0.88 -0.36 -0.88 -0.8 c0 -0.52 0.4 -0.88 0.88 -0.88 l8.44 0 c0.48 0 0.84 0.4 0.84 0.88 c0 0.44 -0.44 0.8 -0.88 0.8 c-0.52 0 -0.92 -0.36 -0.92 -0.8 c0 -0.12 0.04 -0.24 0.04 -0.28 c-0.84 0.28 -1.4 0.88 -1.4 2.76 l0 12.44 c0.52 -0.64 1.2 -1.32 1.68 -1.92 l0.84 -1 l4.08 -4.92 c2.12 -2.44 6.32 -7.52 0.84 -7.52 l0 -0.44 l10.16 0 c0.48 0 0.84 0.36 0.84 0.88 c0 0.44 -0.36 0.8 -0.84 0.8 s-0.92 -0.36 -0.92 -0.8 c0 -0.12 0.04 -0.28 0.12 -0.4 c-2.36 0.2 -4.72 1.96 -11.88 11.04 c2.12 2.88 4.32 5.84 6.04 8.08 z M149.636 32.36 l0.48 0 l0 7.64 l-18.44 0 l0 -0.48 c1.56 0 2 -1.24 2 -3.8 l0 -17.6 c0 -1.88 -0.24 -2.96 -1.16 -3.32 c0 0.04 0.04 0.12 0.04 0.24 c0 0.48 -0.4 0.84 -0.88 0.84 s-0.88 -0.36 -0.88 -0.84 s0.4 -0.88 0.88 -0.88 l17.96 0 l0 6.64 c0 0.6 -0.28 0.88 -0.88 0.88 c-0.48 0 -0.84 -0.36 -0.84 -0.88 s0.36 -0.88 0.84 -0.88 c0.12 0 0.24 0 0.32 0.04 c-0.96 -5.28 -6.8 -5.32 -9.64 -5.32 l-1.96 0 l0 11.48 l2.32 0 c1 0 4.88 0.12 5.08 -2.92 l0.48 0 l0 3.44 l-8 0 l0 0.64 l8 0 l0 3.44 l-0.48 0 c-0.2 -3.08 -4.12 -2.92 -5.08 -2.92 l-2.32 0 l0 11.72 l1.64 0 c3.32 0 9.72 0.2 10.52 -7.16 z M181.295 36.28 c0.64 2.72 3 3.2 3.92 3.2 l0 0.52 l-2.76 0 c-4.64 0 -4.2 -0.04 -6.2 -8 c-1.08 -3.84 -4.72 -3.84 -5.72 -3.84 l-1.68 0 l0 8.04 c0 2.52 0.76 3.28 2.32 3.28 l0 0.52 l-8.2 0 l0 -0.52 c1.6 0 2.28 -0.72 2.28 -3.76 l0 -18.24 c0 -1.88 -0.36 -2.56 -1.44 -2.72 c0.04 0.08 0.04 0.2 0.04 0.32 c0 0.48 -0.36 0.88 -0.88 0.88 c-0.48 0 -0.84 -0.4 -0.84 -0.88 s0.36 -0.88 0.84 -0.88 l7 0 c7.32 0 11.32 0.92 11.32 7 c0 5 -2.84 6.48 -6.84 6.68 c2.52 0.2 4.92 0.32 6.84 8.4 z M168.855 27.68 l1.12 0 c4.12 0 7.32 0.04 7.32 -6.48 c0 -6.6 -3.4 -6.48 -7.32 -6.48 l-1.12 0 l0 12.96 z">
    </path>
  </g>
  <g fill="url(#svg-linear-gradient2)"
    transform="matrix(1.389467859350726,0,0,1.389467859350726,29.861052684025005,167.27372763474455)">
    <path
      d="M2.14 7.1 l4.5 0 c0.3 0 0.44 0.14 0.44 0.42 c0 0.22 -0.18 0.4 -0.44 0.4 c-0.22 0 -0.4 -0.18 -0.4 -0.4 c0 -0.08 0.02 -0.14 0.04 -0.18 c-0.62 0.16 -1.04 0.64 -1.04 1.58 l0 7.32 c0 4.02 -1.84 5.68 -4.66 6.1 l-0.06 0 c-0.24 0 -0.42 -0.18 -0.42 -0.4 c0 -0.24 0.18 -0.42 0.42 -0.42 c0.22 0 0.4 0.18 0.4 0.42 l0 0.02 c1.34 -0.64 2.52 -2.02 2.52 -5.5 l0 -5.4 c0 -3.04 0.02 -3.64 -0.94 -3.74 c0.02 0.06 0.04 0.12 0.04 0.2 c0 0.22 -0.2 0.4 -0.42 0.4 s-0.42 -0.18 -0.42 -0.4 c0 -0.26 0.2 -0.42 0.42 -0.42 l0.02 0 z M25.923499999999997 7.119999999999999 l4.74 0 l0 0.22 c-2.4 0 -2.34 1.64 -2.34 3.34 l0 4.98 c0 3.26 -2.2 4.46 -4.44 4.46 c-2.34 0 -4.22 -1.56 -4.22 -4.54 l0 -6.64 c0 -1.02 -0.34 -1.44 -0.88 -1.54 c0.02 0.02 0.02 0.06 0.02 0.16 c0 0.24 -0.18 0.42 -0.44 0.42 c-0.24 0 -0.42 -0.18 -0.42 -0.42 c0 -0.26 0.18 -0.44 0.42 -0.44 l4.54 0 c0.22 0 0.44 0.2 0.44 0.44 s-0.22 0.42 -0.44 0.42 c-0.24 0 -0.46 -0.18 -0.46 -0.42 c0 -0.08 0.04 -0.12 0.06 -0.18 c-0.62 0.08 -1.04 0.38 -1.04 1.58 l0 6.78 c0 2.26 1.34 3.58 3.34 3.58 c1.84 0 3.28 -1.32 3.28 -3.66 l0 -4.98 c0 -1.7 -0.02 -3.34 -2.16 -3.34 l0 -0.22 z M44.707 11.58 l3.04 2 c2.44 1.58 2.86 3.66 1.9 5.16 c-0.18 0.28 -0.42 0.52 -0.74 0.74 c-0.56 0.38 -1.44 0.74 -2.88 0.74 c-1.52 0 -2.58 -0.24 -3.3 -0.5 c-0.42 -0.14 -0.78 -0.32 -1.06 -0.52 l0 -3.52 l0.02 0 l-0.02 -0.02 c0 -0.24 0.2 -0.42 0.44 -0.42 c0.22 0 0.44 0.18 0.44 0.42 c0 0.26 -0.22 0.44 -0.44 0.44 c-0.08 0 -0.14 -0.02 -0.18 -0.04 c0.26 2.08 1.16 3.92 4.1 3.92 c2.8 0 3.12 -3.08 1 -4.62 l-3.04 -1.96 c-1.72 -1.14 -3.38 -2.78 -2 -4.96 c0.18 -0.26 0.44 -0.5 0.76 -0.72 c0.54 -0.38 1.42 -0.72 2.7 -0.72 c1.34 0 2.36 0.22 3.08 0.44 c0.42 0.14 0.8 0.28 1.1 0.44 l0 3.04 l0 0.04 c0 0.22 -0.18 0.44 -0.42 0.44 c-0.26 0 -0.44 -0.22 -0.44 -0.44 c0 -0.24 0.18 -0.46 0.44 -0.46 c0.02 0 0.06 0.04 0.12 0.04 c-0.26 -1.66 -1.06 -3.3 -3.88 -3.3 c-1.98 0 -3.48 2.56 -0.74 4.34 z M71.9305 7.119999999999999 l0 3.22 l0 0.02 c0 0.24 -0.18 0.44 -0.42 0.44 s-0.44 -0.2 -0.44 -0.44 s0.2 -0.44 0.44 -0.44 c0.06 0 0.1 0.02 0.16 0.02 c-0.32 -2.56 -3.1 -2.58 -3.34 -2.58 l-1.1 0 l0 10.86 c0 1.2 0.58 1.54 1.36 1.54 l0 0.24 l-4.48 0 l0 -0.24 c0.78 0 1.32 -0.34 1.32 -1.54 l0 -10.86 l-1.08 0 c-0.54 0 -3.08 0.02 -3.34 2.58 c0.04 -0.02 0.1 -0.02 0.16 -0.02 c0.26 0 0.44 0.18 0.44 0.42 c0 0.3 -0.14 0.44 -0.44 0.44 c-0.24 0 -0.42 -0.18 -0.42 -0.44 l0 -3.22 l11.18 0 z M109.19749999999999 7.119999999999999 l0 3.22 l0 0.02 c0 0.24 -0.18 0.44 -0.42 0.44 s-0.44 -0.2 -0.44 -0.44 s0.2 -0.44 0.44 -0.44 c0.06 0 0.1 0.02 0.16 0.02 c-0.32 -2.56 -3.1 -2.58 -3.34 -2.58 l-1.1 0 l0 10.86 c0 1.2 0.58 1.54 1.36 1.54 l0 0.24 l-4.48 0 l0 -0.24 c0.78 0 1.32 -0.34 1.32 -1.54 l0 -10.86 l-1.08 0 c-0.54 0 -3.08 0.02 -3.34 2.58 c0.04 -0.02 0.1 -0.02 0.16 -0.02 c0.26 0 0.44 0.18 0.44 0.42 c0 0.3 -0.14 0.44 -0.44 0.44 c-0.24 0 -0.42 -0.18 -0.42 -0.44 l0 -3.22 l11.18 0 z M128.24099999999999 18.48 c0.52 1.2 0.94 1.26 1.42 1.26 l0 0.24 l-4.18 0 l0 -0.24 c0.98 0 0.8 -1.04 0.38 -2.04 l-0.58 -1.6 l-4.78 0 c-0.48 1.44 -1.34 3.74 1.22 3.64 l0 0.24 l-4.06 0 l0 -0.24 c0.7 0 1.14 -0.12 2.72 -4.3 l2.68 -7.32 l0.34 -1.02 l1.04 0 l0.76 0 l0.7 0 c0.24 0 0.4 0.2 0.4 0.44 s-0.2 0.42 -0.44 0.42 c-0.22 0 -0.44 -0.18 -0.44 -0.42 c0 -0.08 0.04 -0.12 0.06 -0.18 c-0.7 0.1 -0.74 0.54 -0.52 1.28 c0 0.02 0.02 0.18 3.14 9.4 c0.06 0.16 0.08 0.26 0.1 0.34 c0.02 0.06 0.02 0.08 0.04 0.1 z M125.041 15.4 l-2.16 -6 l-2.18 6 l4.34 0 z M120.56099999999999 15.86 l4.66 0 l-0.12 -0.22 l-4.48 0 z M149.5245 16.02 l0 3.98 l-9.14 0 l0 -0.24 c0.78 0 1 -0.68 1 -1.94 l0 -8.94 c0 -0.94 -0.24 -1.38 -0.74 -1.52 c0 0.06 0.02 0.1 0.02 0.16 c0 0.24 -0.2 0.42 -0.44 0.42 s-0.44 -0.18 -0.44 -0.42 c0 -0.26 0.2 -0.44 0.44 -0.44 l4.36 0 c0.26 0 0.44 0.2 0.44 0.44 s-0.2 0.42 -0.46 0.42 c-0.24 0 -0.44 -0.18 -0.44 -0.42 c0 -0.06 0.02 -0.1 0.04 -0.16 c-0.56 0.14 -0.94 0.5 -0.94 1.6 l0 10.8 l0.66 0 c1.9 0.06 4.84 0 5.38 -3.26 c-0.06 0 -0.08 0.02 -0.14 0.02 c-0.26 0 -0.44 -0.2 -0.44 -0.44 s0.18 -0.44 0.44 -0.44 c0.22 0 0.38 0.16 0.4 0.38 z M168.988 16.86 l1.4 1.88 c0.86 1.06 2.18 1.02 2.44 1.02 l0 0.24 l-1.96 0 c-1.96 0 -2.44 -0.52 -4.34 -3.34 c-0.72 -1.02 -1.4 -1.96 -1.78 -2.46 l-1.24 1.48 l0 2.38 c0 1.28 0.44 1.7 1.24 1.7 l0 0.24 l-4.3 0 l0 -0.24 c0.78 0 1.2 -0.42 1.2 -1.7 l0 -9.32 c0 -0.94 -0.26 -1.3 -0.8 -1.44 c0.02 0.08 0.04 0.14 0.04 0.2 c0 0.22 -0.2 0.4 -0.44 0.4 s-0.44 -0.18 -0.44 -0.4 c0 -0.26 0.2 -0.44 0.44 -0.44 l4.22 0 c0.24 0 0.42 0.2 0.42 0.44 c0 0.22 -0.22 0.4 -0.44 0.4 c-0.26 0 -0.46 -0.18 -0.46 -0.4 c0 -0.06 0.02 -0.12 0.02 -0.14 c-0.42 0.14 -0.7 0.44 -0.7 1.38 l0 6.22 c0.26 -0.32 0.6 -0.66 0.84 -0.96 l0.42 -0.5 l2.04 -2.46 c1.06 -1.22 3.16 -3.76 0.42 -3.76 l0 -0.22 l5.08 0 c0.24 0 0.42 0.18 0.42 0.44 c0 0.22 -0.18 0.4 -0.42 0.4 s-0.46 -0.18 -0.46 -0.4 c0 -0.06 0.02 -0.14 0.06 -0.2 c-1.18 0.1 -2.36 0.98 -5.94 5.52 c1.06 1.44 2.16 2.92 3.02 4.04 z">
    </path>
  </g>
</svg>